<svg xmlns="http://www.w3.org/2000/svg" viewBox="0 0 24 24">
  <path d="M12 0C5.373 0 0 5.373 0 12s5.373 12 12 12 12-5.373 12-12S18.627 0 12 0zm0 2.4c5.302 0 9.6 4.298 9.6 9.6s-4.298 9.6-9.6 9.6S2.4 17.302 2.4 12 6.698 2.4 12 2.4z" fill="#00ADD8"/>
  <path d="M12 4.8c-3.976 0-7.2 3.224-7.2 7.2s3.224 7.2 7.2 7.2 7.2-3.224 7.2-7.2-3.224-7.2-7.2-7.2zm0 1.2c3.314 0 6 2.686 6 6s-2.686 6-6 6-6-2.686-6-6 2.686-6 6-6z" fill="#FFFFFF"/>
  <path d="M8.4 9.6c-0.663 0-1.2 0.537-1.2 1.2s0.537 1.2 1.2 1.2 1.2-0.537 1.2-1.2-0.537-1.2-1.2-1.2zm7.2 0c-0.663 0-1.2 0.537-1.2 1.2s0.537 1.2 1.2 1.2 1.2-0.537 1.2-1.2-0.537-1.2-1.2-1.2zm-3.6 3.6c-0.663 0-1.2 0.537-1.2 1.2s0.537 1.2 1.2 1.2 1.2-0.537 1.2-1.2-0.537-1.2-1.2-1.2z" fill="#00ADD8"/>
  <path d="M12 7.2l-1.2 2.4 1.2 2.4 1.2-2.4-1.2-2.4z" fill="#00ADD8"/>
  <path d="M9.6 12l-2.4 1.2 2.4 1.2 2.4-1.2-2.4-1.2z" fill="#00ADD8"/>
  <path d="M14.4 12l-2.4 1.2 2.4 1.2 2.4-1.2-2.4-1.2z" fill="#00ADD8"/>
</svg>
