<svg xmlns="http://www.w3.org/2000/svg" viewBox="0 0 24 24">
  <defs>
    <linearGradient id="ml-gradient" x1="0%" y1="0%" x2="100%" y2="100%">
      <stop offset="0%" style="stop-color:#FF6B6B;stop-opacity:1" />
      <stop offset="50%" style="stop-color:#4ECDC4;stop-opacity:1" />
      <stop offset="100%" style="stop-color:#45B7D1;stop-opacity:1" />
    </linearGradient>
  </defs>
  <path d="M12 2L2 7v10c0 5.55 3.84 10.74 9 12 5.16-1.26 9-6.45 9-12V7l-10-5z" fill="url(#ml-gradient)" opacity="0.9"/>
  <path d="M12 6c-1.1 0-2 .9-2 2s.9 2 2 2 2-.9 2-2-.9-2-2-2zm-4 6c-1.1 0-2 .9-2 2s.9 2 2 2 2-.9 2-2-.9-2-2-2zm8 0c-1.1 0-2 .9-2 2s.9 2 2 2 2-.9 2-2-.9-2-2-2zm-4 6c-1.1 0-2 .9-2 2s.9 2 2 2 2-.9 2-2-.9-2-2-2z" fill="#FFFFFF" opacity="0.9"/>
  <path d="M12 8v6m-4-2h8m-8 4h8" stroke="#FFFFFF" stroke-width="1.5" stroke-linecap="round" opacity="0.7"/>
  <circle cx="12" cy="12" r="1.5" fill="#FFFFFF" opacity="0.8"/>
</svg>
