<svg xmlns="http://www.w3.org/2000/svg" viewBox="0 0 24 24">
  <defs>
    <linearGradient id="next-gradient" x1="0%" y1="0%" x2="100%" y2="100%">
      <stop offset="0%" style="stop-color:#000000;stop-opacity:1" />
      <stop offset="100%" style="stop-color:#333333;stop-opacity:1" />
    </linearGradient>
  </defs>
  <path d="M12 0C5.373 0 0 5.373 0 12s5.373 12 12 12 12-5.373 12-12S18.627 0 12 0zm0 2.4c5.302 0 9.6 4.298 9.6 9.6s-4.298 9.6-9.6 9.6S2.4 17.302 2.4 12 6.698 2.4 12 2.4z" fill="url(#next-gradient)"/>
  <path d="M12 4.8c-3.976 0-7.2 3.224-7.2 7.2s3.224 7.2 7.2 7.2 7.2-3.224 7.2-7.2-3.224-7.2-7.2-7.2zm0 1.2c3.314 0 6 2.686 6 6s-2.686 6-6 6-6-2.686-6-6 2.686-6 6-6z" fill="#FFFFFF"/>
  <text x="12" y="16" text-anchor="middle" fill="#000000" font-size="12" font-weight="bold" font-family="Arial, sans-serif">N</text>
  <path d="M8.4 8.4l7.2 7.2m0-7.2l-7.2 7.2" stroke="#000000" stroke-width="1.5" stroke-linecap="round" opacity="0.3"/>
</svg>
