<svg xmlns="http://www.w3.org/2000/svg" viewBox="0 0 24 24">
  <path d="M12 0C8.686 0 8 0.686 8 4v4c0 3.314 0.686 4 4 4s4-0.686 4-4V4c0-3.314-0.686-4-4-4zm0 2c1.105 0 2 0.895 2 2v4c0 1.105-0.895 2-2 2s-2-0.895-2-2V4c0-1.105 0.895-2 2-2zM8 12c-3.314 0-4 0.686-4 4v4c0 3.314 0.686 4 4 4s4-0.686 4-4v-4c0-3.314-0.686-4-4-4zm0 2c1.105 0 2 0.895 2 2v4c0 1.105-0.895 2-2 2s-2-0.895-2-2v-4c0-1.105 0.895-2 2-2z" fill="#3776AB"/>
  <path d="M12 12c-3.314 0-4 0.686-4 4v4c0 3.314 0.686 4 4 4s4-0.686 4-4v-4c0-3.314-0.686-4-4-4zm0 2c1.105 0 2 0.895 2 2v4c0 1.105-0.895 2-2 2s-2-0.895-2-2v-4c0-1.105 0.895-2 2-2z" fill="#FFD43B"/>
</svg>
