<svg xmlns="http://www.w3.org/2000/svg" viewBox="0 0 24 24">
  <path d="M12 0C5.373 0 0 5.373 0 12s5.373 12 12 12 12-5.373 12-12S18.627 0 12 0zm0 2.4c5.302 0 9.6 4.298 9.6 9.6s-4.298 9.6-9.6 9.6S2.4 17.302 2.4 12 6.698 2.4 12 2.4z" fill="#CE422B"/>
  <path d="M12 4.8c-3.976 0-7.2 3.224-7.2 7.2s3.224 7.2 7.2 7.2 7.2-3.224 7.2-7.2-3.224-7.2-7.2-7.2zm0 1.2c3.314 0 6 2.686 6 6s-2.686 6-6 6-6-2.686-6-6 2.686-6 6-6z" fill="#F74C00"/>
  <path d="M12 7.2c-2.651 0-4.8 2.149-4.8 4.8s2.149 4.8 4.8 4.8 4.8-2.149 4.8-4.8-2.149-4.8-4.8-4.8zm0 1.2c1.988 0 3.6 1.612 3.6 3.6s-1.612 3.6-3.6 3.6-3.6-1.612-3.6-3.6 1.612-3.6 3.6-3.6z" fill="#FFFFFF"/>
  <circle cx="12" cy="12" r="1.2" fill="#CE422B"/>
</svg>
