<svg xmlns="http://www.w3.org/2000/svg" viewBox="0 0 24 24">
  <defs>
    <linearGradient id="vue-gradient" x1="0%" y1="0%" x2="100%" y2="100%">
      <stop offset="0%" style="stop-color:#42B883;stop-opacity:1" />
      <stop offset="100%" style="stop-color:#35495E;stop-opacity:1" />
    </linearGradient>
  </defs>
  <path d="M12 0C5.373 0 0 5.373 0 12s5.373 12 12 12 12-5.373 12-12S18.627 0 12 0zm0 2.4c5.302 0 9.6 4.298 9.6 9.6s-4.298 9.6-9.6 9.6S2.4 17.302 2.4 12 6.698 2.4 12 2.4z" fill="url(#vue-gradient)"/>
  <path d="M12 4.8c-3.976 0-7.2 3.224-7.2 7.2s3.224 7.2 7.2 7.2 7.2-3.224 7.2-7.2-3.224-7.2-7.2-7.2zm0 1.2c3.314 0 6 2.686 6 6s-2.686 6-6 6-6-2.686-6-6 2.686-6 6-6z" fill="#FFFFFF"/>
  <path d="M12 7.2L7.2 16.8h3.6L12 13.2l1.2 3.6h3.6L12 7.2z" fill="#42B883"/>
  <path d="M12 9.6L9.6 14.4h4.8L12 9.6z" fill="#35495E"/>
  <path d="M8.4 8.4l7.2 7.2m-7.2 0l7.2-7.2" stroke="#FFFFFF" stroke-width="0.5" stroke-linecap="round" opacity="0.3"/>
</svg>
